<?xml version="1.0" encoding="UTF-8" standalone="no"?>
<!-- Created with Inkscape (http://www.inkscape.org/) -->

<svg
   xmlns:dc="http://purl.org/dc/elements/1.1/"
   xmlns:cc="http://creativecommons.org/ns#"
   xmlns:rdf="http://www.w3.org/1999/02/22-rdf-syntax-ns#"
   xmlns:svg="http://www.w3.org/2000/svg"
   xmlns="http://www.w3.org/2000/svg"
   xmlns:sodipodi="http://sodipodi.sourceforge.net/DTD/sodipodi-0.dtd"
   xmlns:inkscape="http://www.inkscape.org/namespaces/inkscape"
   width="210mm"
   height="297mm"
   viewBox="0 0 210 297"
   version="1.1"
   id="svg8"
   inkscape:version="0.92.5 (2060ec1f9f, 2020-04-08)"
   sodipodi:docname="notes.svg">
  <defs
     id="defs2" />
  <sodipodi:namedview
     id="base"
     pagecolor="#ffffff"
     bordercolor="#666666"
     borderopacity="1.0"
     inkscape:pageopacity="0.0"
     inkscape:pageshadow="2"
     inkscape:zoom="0.98994949"
     inkscape:cx="293.20329"
     inkscape:cy="572.50422"
     inkscape:document-units="mm"
     inkscape:current-layer="layer1"
     showgrid="false"
     inkscape:snap-global="false"
     inkscape:window-width="1848"
     inkscape:window-height="1016"
     inkscape:window-x="72"
     inkscape:window-y="27"
     inkscape:window-maximized="1" />
  <metadata
     id="metadata5">
    <rdf:RDF>
      <cc:Work
         rdf:about="">
        <dc:format>image/svg+xml</dc:format>
        <dc:type
           rdf:resource="http://purl.org/dc/dcmitype/StillImage" />
        <dc:title></dc:title>
      </cc:Work>
    </rdf:RDF>
  </metadata>
  <g
     inkscape:label="Capa 1"
     inkscape:groupmode="layer"
     id="layer1">
    <path
       style="opacity:1;fill:none;fill-opacity:1;stroke:#000000;stroke-width:0.55000001;stroke-linecap:butt;stroke-linejoin:round;stroke-miterlimit:4;stroke-dasharray:none;stroke-opacity:1"
       d="m 48.921868,48.999655 c 1.886402,0.899091 2.265521,2.456844 0,2.456844"
       id="path815"
       inkscape:connector-curvature="0" />
    <path
       style="opacity:1;fill:none;fill-opacity:1;stroke:#000000;stroke-width:0.55000001;stroke-linecap:butt;stroke-linejoin:round;stroke-miterlimit:4;stroke-dasharray:none;stroke-opacity:1"
       d="m 52.22916,48.810666 c -1.958343,0.538845 -1.961187,2.929316 0.188989,2.929316"
       id="path817"
       inkscape:connector-curvature="0" />
    <path
       style="opacity:1;fill:none;fill-opacity:1;stroke:#000000;stroke-width:0.55000001;stroke-linecap:butt;stroke-linejoin:round;stroke-miterlimit:4;stroke-dasharray:none;stroke-opacity:1"
       d="m 62.151034,49.188644 c -0.0019,0.500999 -0.505296,1.605402 0,1.984375 0.278996,0.209246 0.913157,0.425437 1.228424,0.188987 0.169214,-0.12691 0.845539,-1.233332 0.850447,-1.228424 0.758645,0.758648 -0.688091,3.505158 -1.511906,3.779764 -0.571317,0.190439 -1.276503,-0.153763 -1.795385,-0.283483"
       id="path825"
       inkscape:connector-curvature="0" />
    <path
       style="opacity:1;fill:none;fill-opacity:1;stroke:#000000;stroke-width:0.55000001;stroke-linecap:butt;stroke-linejoin:round;stroke-miterlimit:4;stroke-dasharray:none;stroke-opacity:1"
       d="m 110.78484,39.646981 c -0.41246,1.378127 -0.77211,3.088439 -1.06907,4.276313"
       id="path845"
       inkscape:connector-curvature="0" />
    <path
       style="opacity:1;fill:none;fill-opacity:1;stroke:#000000;stroke-width:0.55000001;stroke-linecap:butt;stroke-linejoin:round;stroke-miterlimit:4;stroke-dasharray:none;stroke-opacity:1"
       d="m 116.53114,41.250599 c 1.72418,1.010132 0.2348,2.011015 -1.06908,2.27179"
       id="path847"
       inkscape:connector-curvature="0" />
    <path
       style="opacity:1;fill:none;fill-opacity:1;stroke:#000000;stroke-width:0.55000001;stroke-linecap:butt;stroke-linejoin:round;stroke-miterlimit:4;stroke-dasharray:none;stroke-opacity:1"
       d="m 118.66929,41.517868 c -1.69784,0.504103 -1.33426,2.271791 0.40091,2.271791"
       id="path849"
       inkscape:connector-curvature="0" />
    <path
       style="opacity:1;fill:none;fill-opacity:1;stroke:#000000;stroke-width:0.55000001;stroke-linecap:butt;stroke-linejoin:round;stroke-miterlimit:4;stroke-dasharray:none;stroke-opacity:1"
       d="m 127.22192,41.785138 c -0.12778,0.711923 -0.32171,1.762013 0,2.405425 0.57706,1.154131 2.93996,-1.758235 2.93996,-1.336347 0,1.761535 -1.31792,6.694022 -3.74177,5.078122"
       id="path851"
       inkscape:connector-curvature="0" />
    <path
       style="opacity:1;fill:none;fill-opacity:1;stroke:#000000;stroke-width:0.55000001;stroke-linecap:butt;stroke-linejoin:round;stroke-miterlimit:4;stroke-dasharray:none;stroke-opacity:1"
       d="m 138.44724,41.116964 c 1.91203,0.688116 1.5093,2.672695 -0.4009,2.672695"
       id="path853"
       inkscape:connector-curvature="0" />
    <path
       style="opacity:1;fill:none;fill-opacity:1;stroke:#000000;stroke-width:0.55000001;stroke-linecap:butt;stroke-linejoin:round;stroke-miterlimit:4;stroke-dasharray:none;stroke-opacity:1"
       d="m 141.92174,41.116964 c -2.48362,0.901298 -2.34785,3.660561 0.53454,2.939964"
       id="path855"
       inkscape:connector-curvature="0" />
    <path
       style="opacity:1;fill:none;fill-opacity:1;stroke:#000000;stroke-width:0.55000001;stroke-linecap:butt;stroke-linejoin:round;stroke-miterlimit:4;stroke-dasharray:none;stroke-opacity:1"
       d="m 144.32717,38.444268 c 1.93272,1.163586 -2.521,2.610394 0.93544,3.474504"
       id="path857"
       inkscape:connector-curvature="0" />
    <path
       style="opacity:1;fill:none;fill-opacity:1;stroke:#000000;stroke-width:0.55000001;stroke-linecap:butt;stroke-linejoin:round;stroke-miterlimit:4;stroke-dasharray:none;stroke-opacity:1"
       d="m 130.41965,56.976903 c -0.004,1.126725 -0.0518,2.263383 -0.26727,3.34087"
       id="path863"
       inkscape:connector-curvature="0" />
    <path
       style="opacity:1;fill:none;fill-opacity:1;stroke:#000000;stroke-width:0.55000001;stroke-linecap:butt;stroke-linejoin:round;stroke-miterlimit:4;stroke-dasharray:none;stroke-opacity:1"
       d="m 142.98132,56.442365 c -6.00015,7.957778 5.95095,3.521848 1.06908,0.267269"
       id="path865"
       inkscape:connector-curvature="0" />
    <path
       style="opacity:1;fill:none;fill-opacity:1;stroke:#000000;stroke-width:0.55000001;stroke-linecap:butt;stroke-linejoin:round;stroke-miterlimit:4;stroke-dasharray:none;stroke-opacity:1"
       d="m 117.72435,67.53405 c -4.12153,2.485382 4.51641,5.291048 1.60362,-0.53454"
       id="path871"
       inkscape:connector-curvature="0" />
    <path
       style="opacity:1;fill:none;fill-opacity:1;stroke:#000000;stroke-width:0.55000001;stroke-linecap:butt;stroke-linejoin:round;stroke-miterlimit:4;stroke-dasharray:none;stroke-opacity:1"
       d="m 129.75148,66.99951 c -0.9628,0.137827 -1.0091,0.829143 -1.20271,1.603618 -0.90511,3.620418 3.20723,2.596216 3.20723,-0.267271 0,-0.947142 0.30555,-1.444464 -0.53454,-2.004521"
       id="path873"
       inkscape:connector-curvature="0" />
    <path
       style="opacity:1;fill:none;fill-opacity:1;stroke:#000000;stroke-width:0.55000001;stroke-linecap:butt;stroke-linejoin:round;stroke-miterlimit:4;stroke-dasharray:none;stroke-opacity:1"
       d="m 156.07753,57.912348 c -0.86628,-0.106786 -1.39351,0.432564 -1.87089,1.069078 -1.48338,1.97784 2.6727,3.350157 2.6727,-0.534541 0,-0.618831 -0.28861,-0.662839 -0.80181,-0.534537 z"
       id="path891"
       inkscape:connector-curvature="0" />
    <path
       style="opacity:1;fill:none;fill-opacity:1;stroke:#000000;stroke-width:0.55000001;stroke-linecap:butt;stroke-linejoin:round;stroke-miterlimit:4;stroke-dasharray:none;stroke-opacity:1"
       d="m 155.40935,65.395894 c 0,1.781797 0,3.563594 0,5.34539"
       id="path893"
       inkscape:connector-curvature="0" />
    <path
       style="opacity:1;fill:none;fill-opacity:1;stroke:#000000;stroke-width:0.55000001;stroke-linecap:butt;stroke-linejoin:round;stroke-miterlimit:4;stroke-dasharray:none;stroke-opacity:1"
       d="m 47.391521,63.142024 c 2.371058,0.152008 0.21803,2.02801 -0.566965,2.55134"
       id="path875-5"
       inkscape:connector-curvature="0" />
    <path
       style="opacity:1;fill:none;fill-opacity:1;stroke:#000000;stroke-width:0.55000001;stroke-linecap:butt;stroke-linejoin:round;stroke-miterlimit:4;stroke-dasharray:none;stroke-opacity:1"
       d="m 49.564885,63.142024 c -2.720901,0.425651 -0.82205,2.645833 0.944941,2.645833"
       id="path877-3"
       inkscape:connector-curvature="0" />
    <path
       style="opacity:1;fill:none;fill-opacity:1;stroke:#000000;stroke-width:0.55000001;stroke-linecap:butt;stroke-linejoin:round;stroke-miterlimit:4;stroke-dasharray:none;stroke-opacity:1"
       d="m 51.54926,60.307201 c 2.430005,1.910477 -2.364274,1.393307 1.511903,2.362351"
       id="path895-2"
       inkscape:connector-curvature="0" />
    <path
       style="opacity:1;fill:none;fill-opacity:1;stroke:#000000;stroke-width:0.55000001;stroke-linecap:butt;stroke-linejoin:round;stroke-miterlimit:4;stroke-dasharray:none;stroke-opacity:1"
       d="m 65.061907,62.480564 c -0.177194,0.82514 -0.243609,1.835261 0.377976,2.456847 1.227931,1.227931 1.984375,-2.088195 1.984375,-1.889882 0,1.413346 -2.828456,6.242971 -4.535712,4.535715"
       id="path897-9"
       inkscape:connector-curvature="0" />
    <path
       style="opacity:1;fill:none;fill-opacity:1;stroke:#000000;stroke-width:0.55000001;stroke-linecap:butt;stroke-linejoin:round;stroke-miterlimit:4;stroke-dasharray:none;stroke-opacity:1"
       d="m 68.085717,60.212707 c 2.642232,0.401626 -1.217645,1.795388 1.13393,1.795388"
       id="path905-1"
       inkscape:connector-curvature="0" />
    <path
       style="opacity:1;fill:none;fill-opacity:1;stroke:#000000;stroke-width:0.55000001;stroke-linecap:butt;stroke-linejoin:round;stroke-miterlimit:4;stroke-dasharray:none;stroke-opacity:1"
       d="m 155.6249,40.179418 c -0.12778,0.711923 -0.32171,1.762012 0,2.405425 0.57706,1.154131 2.93996,-1.758235 2.93996,-1.336348 0,1.761536 -1.31792,6.694023 -3.74177,5.078123"
       id="path851-0"
       inkscape:connector-curvature="0" />
    <path
       style="opacity:1;fill:none;fill-opacity:1;stroke:#000000;stroke-width:0.55000001;stroke-linecap:butt;stroke-linejoin:round;stroke-miterlimit:4;stroke-dasharray:none;stroke-opacity:1"
       d="m 161.5485,37.493229 c 1.93272,1.163586 -2.521,2.610394 0.93544,3.474505"
       id="path857-9"
       inkscape:connector-curvature="0" />
    <path
       style="opacity:1;fill:none;fill-opacity:1;stroke:#000000;stroke-width:0.55000001;stroke-linecap:butt;stroke-linejoin:round;stroke-miterlimit:4;stroke-dasharray:none;stroke-opacity:1"
       d="m 111.61512,55.593371 c -0.9628,0.137827 -1.0091,0.829143 -1.20271,1.603618 -0.90511,3.620418 3.20723,2.596216 3.20723,-0.267271 0,-0.947142 0.30555,-1.444464 -0.53454,-2.004521"
       id="path873-3"
       inkscape:connector-curvature="0" />
    <path
       style="opacity:1;fill:none;fill-opacity:1;stroke:#000000;stroke-width:0.55000001;stroke-linecap:butt;stroke-linejoin:round;stroke-miterlimit:4;stroke-dasharray:none;stroke-opacity:1"
       d="m 110.94694,67.219596 c -0.9628,0.137827 -1.0091,0.829143 -1.20271,1.603618 -0.90511,3.620418 3.20723,2.596216 3.20723,-0.267271 0,-0.947142 0.30555,-1.444464 -0.53454,-2.004521"
       id="path873-6"
       inkscape:connector-curvature="0" />
    <path
       style="opacity:1;fill:none;fill-opacity:1;stroke:#000000;stroke-width:0.55000001;stroke-linecap:butt;stroke-linejoin:round;stroke-miterlimit:4;stroke-dasharray:none;stroke-opacity:1"
       d="m 56.794775,63.005527 c 0.726636,0.446217 1.257287,0.400905 2.138156,0.400905"
       id="path1021"
       inkscape:connector-curvature="0" />
    <path
       style="opacity:1;fill:none;fill-opacity:1;stroke:#000000;stroke-width:0.55000001;stroke-linecap:butt;stroke-linejoin:round;stroke-miterlimit:4;stroke-dasharray:none;stroke-opacity:1"
       d="m 151.93485,68.068587 c 0.44545,0 0.8909,0 1.33635,0"
       id="path1023"
       inkscape:connector-curvature="0" />
    <path
       style="opacity:1;fill:none;fill-opacity:1;stroke:#000000;stroke-width:0.55000001;stroke-linecap:butt;stroke-linejoin:round;stroke-miterlimit:4;stroke-dasharray:none;stroke-opacity:1"
       d="m 42.805802,61.048362 c -0.09616,0.959101 -2.132216,3.401785 -0.472469,3.401785 0.541528,0 1.107027,-0.123806 1.41741,-0.330729"
       id="path1027"
       inkscape:connector-curvature="0" />
    <path
       style="opacity:1;fill:none;fill-opacity:1;stroke:#000000;stroke-width:0.55000001;stroke-linecap:butt;stroke-linejoin:round;stroke-miterlimit:4;stroke-dasharray:none;stroke-opacity:1"
       d="m 43.042038,62.938244 c -0.171297,1.003429 -0.566965,2.026272 -0.566965,3.023809"
       id="path1029"
       inkscape:connector-curvature="0" />
    <path
       style="opacity:1;fill:none;fill-opacity:1;stroke:#000000;stroke-width:0.55000001;stroke-linecap:butt;stroke-linejoin:round;stroke-miterlimit:4;stroke-dasharray:none;stroke-opacity:1"
       d="m 44.175968,48.527901 c 5.118412,0.179832 -3.32172,3.49628 1.370163,3.49628"
       id="path1031"
       inkscape:connector-curvature="0" />
    <path
       style="opacity:1;fill:none;fill-opacity:1;stroke:#000000;stroke-width:0.55000001;stroke-linecap:butt;stroke-linejoin:round;stroke-miterlimit:4;stroke-dasharray:none;stroke-opacity:1"
       d="m 55.893228,50.748511 c 0.508162,0.118944 1.076863,0.02117 1.559153,0.14174"
       id="path1033"
       inkscape:connector-curvature="0" />
    <path
       style="opacity:1;fill:none;fill-opacity:1;stroke:#000000;stroke-width:0.55000001;stroke-linecap:butt;stroke-linejoin:round;stroke-miterlimit:4;stroke-dasharray:none;stroke-opacity:1"
       d="m 142.31315,65.529526 c -0.0622,0.57608 -0.32292,1.074582 -0.53454,1.603619 -1.34209,3.355221 3.11245,3.319095 3.34087,2.405425"
       id="path1035"
       inkscape:connector-curvature="0" />
    <path
       style="opacity:1;fill:none;fill-opacity:1;stroke:#000000;stroke-width:0.55000001;stroke-linecap:butt;stroke-linejoin:round;stroke-miterlimit:4;stroke-dasharray:none;stroke-opacity:1"
       d="m 144.0504,67.801318 c -0.90615,1.507628 -1.34559,3.626639 -2.00452,4.944486"
       id="path1037"
       inkscape:connector-curvature="0" />
    <path
       style="opacity:1;fill:none;fill-opacity:1;stroke:#000000;stroke-width:0.55000001;stroke-linecap:butt;stroke-linejoin:round;stroke-miterlimit:4;stroke-dasharray:none;stroke-opacity:1"
       d="m 119.19434,55.907824 c 5.03737,-0.442735 -3.61047,3.58548 -0.26727,4.142679 1.08375,0.180623 2.42803,0.261618 3.4745,0"
       id="path1039"
       inkscape:connector-curvature="0" />
    <path
       style="opacity:1;fill:none;fill-opacity:1;stroke:#000000;stroke-width:0.55000001;stroke-linecap:butt;stroke-linejoin:round;stroke-miterlimit:4;stroke-dasharray:none;stroke-opacity:1"
       d="m 127.61333,58.580521 c 0.5185,0.06389 0.88333,-0.06682 1.33634,-0.06682"
       id="path1041"
       inkscape:connector-curvature="0" />
    <text
       xml:space="preserve"
       style="font-style:normal;font-weight:normal;font-size:9.71968365px;line-height:1.25;font-family:sans-serif;text-align:center;letter-spacing:0px;word-spacing:0px;text-anchor:middle;fill:#000000;fill-opacity:1;stroke:none;stroke-width:0.16712677"
       x="97.084465"
       y="114.15772"
       id="text1293"><tspan
         sodipodi:role="line"
         id="tspan1291"
         x="97.084465"
         y="114.15772"
         style="stroke-width:0.16712677">looks overdetermined, but isn't</tspan></text>
    <path
       style="opacity:1;fill:none;fill-opacity:1;stroke:#000000;stroke-width:0.55000001;stroke-linecap:butt;stroke-linejoin:round;stroke-miterlimit:4;stroke-dasharray:none;stroke-opacity:1"
       d="m 55.656993,139.19494 c 1.570252,0.45981 3.16466,0.56696 4.819197,0.56696"
       id="path1307"
       inkscape:connector-curvature="0" />
    <path
       style="opacity:1;fill:none;fill-opacity:1;stroke:#000000;stroke-width:0.55000001;stroke-linecap:butt;stroke-linejoin:round;stroke-miterlimit:4;stroke-dasharray:none;stroke-opacity:1"
       d="m 55.940475,146.37649 c 1.432388,0.76748 3.185814,0.75595 4.819195,0.75595"
       id="path1309"
       inkscape:connector-curvature="0" />
    <path
       style="opacity:1;fill:none;fill-opacity:1;stroke:#000000;stroke-width:0.55000001;stroke-linecap:butt;stroke-linejoin:round;stroke-miterlimit:4;stroke-dasharray:none;stroke-opacity:1"
       d="m 55.751486,139.57292 c 6.539265,6.42204 0.172644,4.90092 -0.377976,7.65401"
       id="path1311"
       inkscape:connector-curvature="0" />
    <path
       style="opacity:1;fill:none;fill-opacity:1;stroke:#000000;stroke-width:0.55000001;stroke-linecap:butt;stroke-linejoin:round;stroke-miterlimit:4;stroke-dasharray:none;stroke-opacity:1"
       d="m 58.39732,149.73102 c 0.176466,0.82165 -0.460783,1.72038 -1.039435,0.75596"
       id="path1313"
       inkscape:connector-curvature="0" />
    <circle
       id="path1315"
       style="fill:#000000;stroke:none;stroke-width:0.26458332"
       cx="58.444565"
       cy="148.59709"
       r="0.41249999" />
    <path
       style="opacity:1;fill:none;fill-opacity:1;stroke:#000000;stroke-width:0.55000001;stroke-linecap:butt;stroke-linejoin:round;stroke-miterlimit:4;stroke-dasharray:none;stroke-opacity:1"
       d="m 65.389879,141.41555 c -3.078565,-0.63134 0.232635,2.69668 -0.236234,3.16555 -0.278106,0.27811 -1.439275,0.6685 -1.559152,0.18899"
       id="path1317"
       inkscape:connector-curvature="0" />
    <path
       style="opacity:1;fill:none;fill-opacity:1;stroke:#000000;stroke-width:0.55000001;stroke-linecap:butt;stroke-linejoin:round;stroke-miterlimit:4;stroke-dasharray:none;stroke-opacity:1"
       d="m 63.736233,143.58891 c 0.76785,-0.14027 1.944756,0.38864 2.598586,-0.0472"
       id="path1319"
       inkscape:connector-curvature="0" />
    <path
       style="opacity:1;fill:none;fill-opacity:1;stroke:#000000;stroke-width:0.55000001;stroke-linecap:butt;stroke-linejoin:round;stroke-miterlimit:4;stroke-dasharray:none;stroke-opacity:1"
       d="m 67.752232,145.66778 c 0.540761,0.53671 -0.738516,2.62109 -1.039437,1.41741"
       id="path1321"
       inkscape:connector-curvature="0" />
    <circle
       id="path1323"
       style="fill:#000000;stroke:none;stroke-width:0.26458332"
       cx="67.704979"
       cy="144.81734"
       r="0.41249999" />
    <path
       style="opacity:1;fill:none;fill-opacity:1;stroke:#000000;stroke-width:0.55000001;stroke-linecap:butt;stroke-linejoin:round;stroke-miterlimit:4;stroke-dasharray:none;stroke-opacity:1"
       d="m 70.634299,141.93527 c -0.346478,0.0454 -0.747996,0.40184 -0.614212,0.8032 0.102915,0.30874 0.661495,0.47243 0.897694,0.23623 0.155109,-0.15511 0.08113,-0.76932 0.236236,-0.61421 0.0205,0.0205 -0.08312,4.22832 -1.464659,3.30729"
       id="path1325"
       inkscape:connector-curvature="0" />
    <path
       style="opacity:1;fill:none;fill-opacity:1;stroke:#000000;stroke-width:0.55000001;stroke-linecap:butt;stroke-linejoin:round;stroke-miterlimit:4;stroke-dasharray:none;stroke-opacity:1"
       d="m 73.374628,146.47098 c 0.191749,0.62921 -0.318408,2.49895 -1.039437,1.41741"
       id="path1327"
       inkscape:connector-curvature="0" />
    <circle
       id="path1329"
       style="fill:#000000;stroke:none;stroke-width:0.26458332"
       cx="73.610863"
       cy="145.71503"
       r="0.41249999" />
    <path
       style="opacity:1;fill:none;fill-opacity:1;stroke:#000000;stroke-width:0.55000001;stroke-linecap:butt;stroke-linejoin:round;stroke-miterlimit:4;stroke-dasharray:none;stroke-opacity:1"
       d="m 80.60342,143.06919 c 0.535466,0 1.070933,0 1.606399,0"
       id="path1331"
       inkscape:connector-curvature="0" />
    <path
       style="opacity:1;fill:none;fill-opacity:1;stroke:#000000;stroke-width:0.55000001;stroke-linecap:butt;stroke-linejoin:round;stroke-miterlimit:4;stroke-dasharray:none;stroke-opacity:1"
       d="m 79.941962,144.5811 c 0.906843,0.28439 1.880489,0.18899 2.834822,0.18899"
       id="path1333"
       inkscape:connector-curvature="0" />
    <path
       style="opacity:1;fill:none;fill-opacity:1;stroke:#000000;stroke-width:0.55000001;stroke-linecap:butt;stroke-linejoin:round;stroke-miterlimit:4;stroke-dasharray:none;stroke-opacity:1"
       d="m 88.068451,142.88021 c -4.439044,3.38358 2.675996,4.45999 0,0 z"
       id="path1335"
       inkscape:connector-curvature="0" />
    <path
       style="opacity:1;fill:none;fill-opacity:1;stroke:#000000;stroke-width:0.55000001;stroke-linecap:butt;stroke-linejoin:round;stroke-miterlimit:4;stroke-dasharray:none;stroke-opacity:1"
       d="m 109.89658,145.99851 c -1.86508,-0.5168 -1.47337,3.04387 0.28348,0.18899 0.24816,-0.40326 0.48342,-0.86516 0.61421,-1.32292 0.0535,-0.18731 0.14174,-0.76177 0.14174,-0.56696 0,0.55254 -0.56582,3.44846 0.66146,2.83482"
       id="path1337"
       inkscape:connector-curvature="0" />
    <path
       style="opacity:1;fill:none;fill-opacity:1;stroke:#000000;stroke-width:0.55000001;stroke-linecap:butt;stroke-linejoin:round;stroke-miterlimit:4;stroke-dasharray:none;stroke-opacity:1"
       d="m 112.6369,145.71503 c 0.17421,0.118 0.43302,0.26513 0.66146,0.18899 0.73405,-0.24469 -0.0556,-1.14115 -0.56696,-0.42523 -1.05211,1.47296 0.5192,1.25231 1.32291,0.85045"
       id="path1339"
       inkscape:connector-curvature="0" />
    <path
       style="opacity:1;fill:none;fill-opacity:1;stroke:#000000;stroke-width:0.55000001;stroke-linecap:butt;stroke-linejoin:round;stroke-miterlimit:4;stroke-dasharray:none;stroke-opacity:1"
       d="m 115.37723,145.52604 c -0.19756,0.10397 -1.05251,0.96772 -0.66146,1.22842 0.71888,0.47925 1.70208,-1.03707 1.74814,-0.94494 0.3863,0.7726 -0.85776,3.07106 -1.79538,3.07106"
       id="path1341"
       inkscape:connector-curvature="0" />
    <path
       style="opacity:1;fill:none;fill-opacity:1;stroke:#000000;stroke-width:0.55000001;stroke-linecap:butt;stroke-linejoin:round;stroke-miterlimit:4;stroke-dasharray:none;stroke-opacity:1"
       d="m 120.95238,143.30543 c -0.46785,0.55625 -2.34042,3.59625 -0.85045,3.96875"
       id="path1343"
       inkscape:connector-curvature="0" />
    <path
       style="opacity:1;fill:none;fill-opacity:1;stroke:#000000;stroke-width:0.55000001;stroke-linecap:butt;stroke-linejoin:round;stroke-miterlimit:4;stroke-dasharray:none;stroke-opacity:1"
       d="m 122.74777,145.3843 c -0.29921,0.0686 -1.1286,0.7167 -0.85045,1.13393 0.68328,1.02492 1.5119,-1.70478 1.5119,-1.37017 0,0.7095 -0.10574,4.52109 -0.99218,4.29948"
       id="path1345"
       inkscape:connector-curvature="0" />
    <path
       style="opacity:1;fill:none;fill-opacity:1;stroke:#000000;stroke-width:0.55000001;stroke-linecap:butt;stroke-linejoin:round;stroke-miterlimit:4;stroke-dasharray:none;stroke-opacity:1"
       d="m 125.20461,142.9747 c 0.41656,1.38773 0.50881,3.60169 -0.61421,4.7247"
       id="path1347"
       inkscape:connector-curvature="0" />
    <path
       style="opacity:1;fill:none;fill-opacity:1;stroke:#000000;stroke-width:0.55000001;stroke-linecap:butt;stroke-linejoin:round;stroke-miterlimit:4;stroke-dasharray:none;stroke-opacity:1"
       d="m 128.6064,145.10082 c 0.45977,-0.0245 0.98237,-0.0896 1.37016,-0.28349"
       id="path1349"
       inkscape:connector-curvature="0" />
    <path
       style="opacity:1;fill:none;fill-opacity:1;stroke:#000000;stroke-width:0.55000001;stroke-linecap:butt;stroke-linejoin:round;stroke-miterlimit:4;stroke-dasharray:none;stroke-opacity:1"
       d="m 128.41741,145.90402 c 0.45896,0.10807 0.89641,0.17685 1.32291,0.28348"
       id="path1351"
       inkscape:connector-curvature="0" />
    <path
       style="opacity:1;fill:none;fill-opacity:1;stroke:#000000;stroke-width:0.55000001;stroke-linecap:butt;stroke-linejoin:round;stroke-miterlimit:4;stroke-dasharray:none;stroke-opacity:1"
       d="m 132.57515,146.84896 c 0.1265,-0.20585 0.15673,-0.44283 0.23623,-0.66146 0.0976,-0.26834 0.21365,-0.47662 0.28349,-0.75595 0.26665,-1.06663 0.57212,0.8032 0.66145,0.8032 0.35208,0 0.58092,-0.72095 0.99219,-0.8032 0.45628,-0.0913 0.85321,0.8282 1.18118,0.99218"
       id="path1353"
       inkscape:connector-curvature="0" />
    <path
       style="opacity:1;fill:none;fill-opacity:1;stroke:#000000;stroke-width:0.55000001;stroke-linecap:butt;stroke-linejoin:round;stroke-miterlimit:4;stroke-dasharray:none;stroke-opacity:1"
       d="m 138.91334,145.19091 c 0.63477,0.0943 1.23035,0.20045 1.87088,0.20045"
       id="path1355"
       inkscape:connector-curvature="0" />
    <path
       style="opacity:1;fill:none;fill-opacity:1;stroke:#000000;stroke-width:0.55000001;stroke-linecap:butt;stroke-linejoin:round;stroke-miterlimit:4;stroke-dasharray:none;stroke-opacity:1"
       d="m 142.52148,143.58729 c -0.12728,1.11714 -0.40375,2.26042 -0.13364,3.34087"
       id="path1357"
       inkscape:connector-curvature="0" />
    <path
       style="opacity:1;fill:none;fill-opacity:1;stroke:#000000;stroke-width:0.55000001;stroke-linecap:butt;stroke-linejoin:round;stroke-miterlimit:4;stroke-dasharray:none;stroke-opacity:1"
       d="m 50.246671,169.64607 c 0.0099,-0.26168 1.327909,-2.28023 1.336347,-2.27179 0.2907,0.29069 0.0097,1.21239 0.267269,1.46998 0.992507,0.9925 1.388112,-2.332 2.004523,0.13364 0.121967,0.48787 0.133633,1.04303 0.133633,1.60361"
       id="path1359"
       inkscape:connector-curvature="0" />
    <path
       style="opacity:1;fill:none;fill-opacity:1;stroke:#000000;stroke-width:0.55000001;stroke-linecap:butt;stroke-linejoin:round;stroke-miterlimit:4;stroke-dasharray:none;stroke-opacity:1"
       d="m 57.596582,168.30972 c 0.678613,-0.0858 1.675106,0.0179 2.138156,0.13363"
       id="path1361"
       inkscape:connector-curvature="0" />
    <path
       style="opacity:1;fill:none;fill-opacity:1;stroke:#000000;stroke-width:0.55000001;stroke-linecap:butt;stroke-linejoin:round;stroke-miterlimit:4;stroke-dasharray:none;stroke-opacity:1"
       d="m 58.264758,170.58151 c 0.863483,0.21472 1.868368,0.20108 2.672693,0"
       id="path1363"
       inkscape:connector-curvature="0" />
    <path
       style="opacity:1;fill:none;fill-opacity:1;stroke:#000000;stroke-width:0.55000001;stroke-linecap:butt;stroke-linejoin:round;stroke-miterlimit:4;stroke-dasharray:none;stroke-opacity:1"
       d="m 87.798038,166.97337 c -0.276121,1.85151 -0.58802,3.74192 -0.935442,5.47903"
       id="path1367"
       inkscape:connector-curvature="0" />
    <path
       style="opacity:1;fill:none;fill-opacity:1;stroke:#000000;stroke-width:0.55000001;stroke-linecap:butt;stroke-linejoin:round;stroke-miterlimit:4;stroke-dasharray:none;stroke-opacity:1"
       d="m 89.268021,170.58151 c -0.111429,0.82753 -0.267269,1.57916 -0.267269,2.40543"
       id="path1369"
       inkscape:connector-curvature="0" />
    <circle
       id="path1371"
       style="fill:#000000;stroke:none;stroke-width:0.26458332"
       cx="89.802559"
       cy="168.30972"
       r="0.41249999" />
    <path
       style="opacity:1;fill:none;fill-opacity:1;stroke:#000000;stroke-width:0.55000001;stroke-linecap:butt;stroke-linejoin:round;stroke-miterlimit:4;stroke-dasharray:none;stroke-opacity:1"
       d="m 91.005273,170.84878 c -0.618956,3.41019 -0.910969,-1.23282 1.069078,1.73725"
       id="path1373"
       inkscape:connector-curvature="0" />
    <path
       style="opacity:1;fill:none;fill-opacity:1;stroke:#000000;stroke-width:0.55000001;stroke-linecap:butt;stroke-linejoin:round;stroke-miterlimit:4;stroke-dasharray:none;stroke-opacity:1"
       d="m 93.945238,171.51695 c 0.736438,0.40391 0.636299,-0.48366 0.267269,-0.66817 -1.658223,-0.82911 -1.207564,4.6845 0.668173,1.87089"
       id="path1375"
       inkscape:connector-curvature="0" />
    <path
       style="opacity:1;fill:none;fill-opacity:1;stroke:#000000;stroke-width:0.55000001;stroke-linecap:butt;stroke-linejoin:round;stroke-miterlimit:4;stroke-dasharray:none;stroke-opacity:1"
       d="m 96.083394,171.91786 c -0.137827,0.24772 -0.563232,1.57492 -0.267269,1.87089 0.580763,0.58076 1.425041,-1.91583 1.469983,-1.87089 0.63079,0.63079 0.19473,1.2848 0.935442,1.46998"
       id="path1377"
       inkscape:connector-curvature="0" />
    <path
       style="opacity:1;fill:none;fill-opacity:1;stroke:#000000;stroke-width:0.55000001;stroke-linecap:butt;stroke-linejoin:round;stroke-miterlimit:4;stroke-dasharray:none;stroke-opacity:1"
       d="m 99.156992,172.05149 c -0.115456,-0.61929 -0.267268,2.50085 -0.267268,1.87089 0,-1.89612 1.849226,-1.29752 3.073596,-1.60362"
       id="path1379"
       inkscape:connector-curvature="0" />
    <path
       style="opacity:1;fill:none;fill-opacity:1;stroke:#000000;stroke-width:0.55000001;stroke-linecap:butt;stroke-linejoin:round;stroke-miterlimit:4;stroke-dasharray:none;stroke-opacity:1"
       d="m 109.04597,171.24968 c -0.26772,0.84696 -0.26727,1.63935 -0.26727,2.53907"
       id="path1381"
       inkscape:connector-curvature="0" />
    <circle
       id="path1383"
       style="fill:#000000;stroke:none;stroke-width:0.26458332"
       cx="108.77869"
       cy="169.37878"
       r="0.41249999" />
    <path
       style="opacity:1;fill:none;fill-opacity:1;stroke:#000000;stroke-width:0.55000001;stroke-linecap:butt;stroke-linejoin:round;stroke-miterlimit:4;stroke-dasharray:none;stroke-opacity:1"
       d="m 110.51595,172.98694 c 0.07,-0.31665 -0.26727,1.25973 -0.26727,0.93544 0,-4.17509 1.94725,-0.4009 2.27179,-0.4009"
       id="path1385"
       inkscape:connector-curvature="0" />
    <path
       style="opacity:1;fill:none;fill-opacity:1;stroke:#000000;stroke-width:0.55000001;stroke-linecap:butt;stroke-linejoin:round;stroke-miterlimit:4;stroke-dasharray:none;stroke-opacity:1"
       d="m 113.32228,172.58603 c -2.40696,5.52078 4.52485,-2.00452 2.40542,-2.00452 -1.15042,0 -0.82588,3.12838 -0.13363,3.4745"
       id="path1387"
       inkscape:connector-curvature="0" />
    <path
       style="opacity:1;fill:none;fill-opacity:1;stroke:#000000;stroke-width:0.55000001;stroke-linecap:butt;stroke-linejoin:round;stroke-miterlimit:4;stroke-dasharray:none;stroke-opacity:1"
       d="m 117.73223,172.98694 c 0.53296,0.0678 0.90399,-0.0393 1.06907,-0.53454 0.14071,-0.42212 -0.36427,-1.23934 -0.8018,-0.80181 -1.13055,1.13055 -0.90056,3.80761 1.20271,2.40542"
       id="path1389"
       inkscape:connector-curvature="0" />
    <path
       style="opacity:1;fill:none;fill-opacity:1;stroke:#000000;stroke-width:0.55000001;stroke-linecap:butt;stroke-linejoin:round;stroke-miterlimit:4;stroke-dasharray:none;stroke-opacity:1"
       d="m 120.80582,173.78875 c -2.56229,7.22052 -1.38799,0.84054 0.80181,-0.80181 1.35095,-1.01321 1.4229,1.15943 -1.06907,2.40542"
       id="path1391"
       inkscape:connector-curvature="0" />
    <path
       style="opacity:1;fill:none;fill-opacity:1;stroke:#000000;stroke-width:0.55000001;stroke-linecap:butt;stroke-linejoin:round;stroke-miterlimit:4;stroke-dasharray:none;stroke-opacity:1"
       d="m 59.2002,179.26777 c 0.698182,-0.0698 1.315389,0.13363 2.00452,0.13363"
       id="path1393"
       inkscape:connector-curvature="0" />
    <path
       style="opacity:1;fill:none;fill-opacity:1;stroke:#000000;stroke-width:0.55000001;stroke-linecap:butt;stroke-linejoin:round;stroke-miterlimit:4;stroke-dasharray:none;stroke-opacity:1"
       d="m 58.532026,181.13866 c 0.757725,0.62613 1.851145,0.4009 2.80633,0.4009"
       id="path1395"
       inkscape:connector-curvature="0" />
    <path
       style="opacity:1;fill:none;fill-opacity:1;stroke:#000000;stroke-width:0.55000001;stroke-linecap:butt;stroke-linejoin:round;stroke-miterlimit:4;stroke-dasharray:none;stroke-opacity:1"
       d="m 87.664405,181.27229 c -0.528762,0.10232 -2.582539,0.98212 -2.138158,1.87089 0.742301,1.4846 2.522299,-1.50351 2.53906,-1.46998 0.455327,0.91065 -3.380893,5.97676 0.133636,3.34087"
       id="path1399"
       inkscape:connector-curvature="0" />
    <path
       style="opacity:1;fill:none;fill-opacity:1;stroke:#000000;stroke-width:0.55000001;stroke-linecap:butt;stroke-linejoin:round;stroke-miterlimit:4;stroke-dasharray:none;stroke-opacity:1"
       d="m 65.614668,167.90882 c -0.179792,1.35902 -0.400904,2.51936 -0.400904,3.8754"
       id="path1401"
       inkscape:connector-curvature="0" />
    <path
       style="opacity:1;fill:none;fill-opacity:1;stroke:#000000;stroke-width:0.55000001;stroke-linecap:butt;stroke-linejoin:round;stroke-miterlimit:4;stroke-dasharray:none;stroke-opacity:1"
       d="m 65.347399,179.13414 c 6.759485,-0.26506 -6.238586,3.4745 3.474503,3.4745"
       id="path1403"
       inkscape:connector-curvature="0" />
    <path
       style="opacity:1;fill:none;fill-opacity:1;stroke:#000000;stroke-width:0.55000001;stroke-linecap:butt;stroke-linejoin:round;stroke-miterlimit:4;stroke-dasharray:none;stroke-opacity:1"
       d="m 90.06983,182.34137 c -1.133189,2.64981 1.071084,0.53454 1.603616,0.53454 0.01204,0 0.01323,1.33635 0.801809,1.33635"
       id="path1405"
       inkscape:connector-curvature="0" />
    <path
       style="opacity:1;fill:none;fill-opacity:1;stroke:#000000;stroke-width:0.55000001;stroke-linecap:butt;stroke-linejoin:round;stroke-miterlimit:4;stroke-dasharray:none;stroke-opacity:1"
       d="m 93.677969,182.87591 c -0.336172,0.31952 -0.749022,1.69683 -0.133636,2.00452 0.425098,0.21255 1.051597,-1.08656 1.069078,-1.06908 0.647856,0.64786 0.0108,2.22006 1.737252,1.06908"
       id="path1407"
       inkscape:connector-curvature="0" />
    <path
       style="opacity:1;fill:none;fill-opacity:1;stroke:#000000;stroke-width:0.55000001;stroke-linecap:butt;stroke-linejoin:round;stroke-miterlimit:4;stroke-dasharray:none;stroke-opacity:1"
       d="m 97.152472,183.81135 c -3.297298,-1.0004 -0.961242,4.08644 0.133636,0.80181 0.212733,-0.6382 0.510085,-1.34771 0.668173,-2.13815 0.05242,-0.26209 0,-1.06908 0,-0.80181 0,0.70222 -0.348498,5.7345 1.069078,3.60813"
       id="path1409"
       inkscape:connector-curvature="0" />
    <path
       style="opacity:1;fill:none;fill-opacity:1;stroke:#000000;stroke-width:0.55000001;stroke-linecap:butt;stroke-linejoin:round;stroke-miterlimit:4;stroke-dasharray:none;stroke-opacity:1"
       d="m 100.89425,183.67772 c -0.0768,-0.65774 -0.66818,2.53309 -0.66818,1.87088 0,-0.69329 0.93545,-1.16617 0.93545,-1.46998 0,-0.16061 -0.4164,-0.34125 -0.26727,-0.4009 0.24587,-0.0983 1.85731,0.13363 2.27179,0.13363"
       id="path1411"
       inkscape:connector-curvature="0" />
    <path
       style="opacity:1;fill:none;fill-opacity:1;stroke:#000000;stroke-width:0.55000001;stroke-linecap:butt;stroke-linejoin:round;stroke-miterlimit:4;stroke-dasharray:none;stroke-opacity:1"
       d="m 104.90329,183.94499 c -0.90951,-0.58852 -1.68519,1.25477 -1.20271,1.73725 0.40741,0.40742 1.26645,-1.33635 1.73725,-1.33635 0.58976,0 -0.37104,2.65278 1.20271,1.60362"
       id="path1413"
       inkscape:connector-curvature="0" />
    <path
       style="opacity:1;fill:none;fill-opacity:1;stroke:#000000;stroke-width:0.55000001;stroke-linecap:butt;stroke-linejoin:round;stroke-miterlimit:4;stroke-dasharray:none;stroke-opacity:1"
       d="m 108.64506,183.27681 c -0.28239,1.13591 -0.0905,2.74168 -0.66817,3.60814"
       id="path1415"
       inkscape:connector-curvature="0" />
    <path
       style="opacity:1;fill:none;fill-opacity:1;stroke:#000000;stroke-width:0.55000001;stroke-linecap:butt;stroke-linejoin:round;stroke-miterlimit:4;stroke-dasharray:none;stroke-opacity:1"
       d="m 106.77417,184.88043 c 0.86745,0.22316 1.68095,0.34817 2.53907,0.13364"
       id="path1417"
       inkscape:connector-curvature="0" />
    <path
       style="opacity:1;fill:none;fill-opacity:1;stroke:#000000;stroke-width:0.55000001;stroke-linecap:butt;stroke-linejoin:round;stroke-miterlimit:4;stroke-dasharray:none;stroke-opacity:1"
       d="m 110.51595,184.34589 c -0.0834,0.72484 -0.13014,1.61759 0,2.13816"
       id="path1419"
       inkscape:connector-curvature="0" />
    <path
       style="opacity:1;fill:none;fill-opacity:1;stroke:#000000;stroke-width:0.55000001;stroke-linecap:butt;stroke-linejoin:round;stroke-miterlimit:4;stroke-dasharray:none;stroke-opacity:1"
       d="m 110.64958,183.00954 c 0.17818,0 0.35636,0 0.53454,0"
       id="path1421"
       inkscape:connector-curvature="0" />
    <path
       style="opacity:1;fill:none;fill-opacity:1;stroke:#000000;stroke-width:0.55000001;stroke-linecap:butt;stroke-linejoin:round;stroke-miterlimit:4;stroke-dasharray:none;stroke-opacity:1"
       d="m 113.58955,185.5486 c -1.09775,1.03425 -0.77032,2.00453 0.66817,2.00453"
       id="path1423"
       inkscape:connector-curvature="0" />
    <path
       style="opacity:1;fill:none;fill-opacity:1;stroke:#000000;stroke-width:0.55000001;stroke-linecap:butt;stroke-linejoin:round;stroke-miterlimit:4;stroke-dasharray:none;stroke-opacity:1"
       d="m 120.67601,184.53405 c -0.26772,0.84696 -0.26727,1.63935 -0.26727,2.53907"
       id="path1381-2"
       inkscape:connector-curvature="0" />
    <circle
       id="path1383-8"
       style="fill:#000000;stroke:none;stroke-width:0.26458332"
       cx="120.40873"
       cy="182.66315"
       r="0.41249999" />
    <path
       style="opacity:1;fill:none;fill-opacity:1;stroke:#000000;stroke-width:0.55000001;stroke-linecap:butt;stroke-linejoin:round;stroke-miterlimit:4;stroke-dasharray:none;stroke-opacity:1"
       d="m 122.14599,186.27131 c 0.07,-0.31665 -0.26727,1.25973 -0.26727,0.93544 0,-4.17509 1.94725,-0.4009 2.27179,-0.4009"
       id="path1385-9"
       inkscape:connector-curvature="0" />
    <path
       style="opacity:1;fill:none;fill-opacity:1;stroke:#000000;stroke-width:0.55000001;stroke-linecap:butt;stroke-linejoin:round;stroke-miterlimit:4;stroke-dasharray:none;stroke-opacity:1"
       d="m 124.95232,185.8704 c -2.40696,5.52078 4.52485,-2.00452 2.40542,-2.00452 -1.15042,0 -0.82588,3.12838 -0.13363,3.4745"
       id="path1387-7"
       inkscape:connector-curvature="0" />
    <path
       style="opacity:1;fill:none;fill-opacity:1;stroke:#000000;stroke-width:0.55000001;stroke-linecap:butt;stroke-linejoin:round;stroke-miterlimit:4;stroke-dasharray:none;stroke-opacity:1"
       d="m 129.36227,186.27131 c 0.53296,0.0678 0.90399,-0.0393 1.06907,-0.53454 0.14071,-0.42212 -0.36427,-1.23934 -0.8018,-0.80181 -1.13055,1.13055 -0.90056,3.80761 1.20271,2.40542"
       id="path1389-3"
       inkscape:connector-curvature="0" />
    <path
       style="opacity:1;fill:none;fill-opacity:1;stroke:#000000;stroke-width:0.55000001;stroke-linecap:butt;stroke-linejoin:round;stroke-miterlimit:4;stroke-dasharray:none;stroke-opacity:1"
       d="m 132.43586,187.07312 c -2.56229,7.22052 -1.38799,0.84054 0.80181,-0.80181 1.35095,-1.01321 1.4229,1.15943 -1.06907,2.40542"
       id="path1391-6"
       inkscape:connector-curvature="0" />
  </g>
</svg>
